<mxfile host="65bd71144e">
    <diagram id="fdcHRNF4cJiiCfVIiIgT" name="Pipeline Execution Sequence">
        <mxGraphModel dx="1851" dy="2018" grid="1" gridSize="10" guides="1" tooltips="1" connect="1" arrows="1" fold="1" page="1" pageScale="1" pageWidth="827" pageHeight="1169" math="0" shadow="0">
            <root>
                <mxCell id="0"/>
                <mxCell id="1" parent="0"/>
                <mxCell id="aa-hK3MONuQhu8VwHIjo-2" value="" style="rounded=0;whiteSpace=wrap;html=1;" parent="1" vertex="1">
                    <mxGeometry x="-250" y="-710" width="720" height="800" as="geometry"/>
                </mxCell>
                <mxCell id="aN9NVF8_P-ZYfl23Ah9N-1" value="VCS" style="shape=umlLifeline;perimeter=lifelinePerimeter;whiteSpace=wrap;html=1;container=1;dropTarget=0;collapsible=0;recursiveResize=0;outlineConnect=0;portConstraint=eastwest;newEdgeStyle={&quot;curved&quot;:0,&quot;rounded&quot;:0};" parent="1" vertex="1">
                    <mxGeometry x="-100" y="-640" width="100" height="670" as="geometry"/>
                </mxCell>
                <mxCell id="aN9NVF8_P-ZYfl23Ah9N-2" value="" style="html=1;points=[[0,0,0,0,5],[0,1,0,0,-5],[1,0,0,0,5],[1,1,0,0,-5]];perimeter=orthogonalPerimeter;outlineConnect=0;targetShapes=umlLifeline;portConstraint=eastwest;newEdgeStyle={&quot;curved&quot;:0,&quot;rounded&quot;:0};" parent="aN9NVF8_P-ZYfl23Ah9N-1" vertex="1">
                    <mxGeometry x="45" y="56" width="10" height="104" as="geometry"/>
                </mxCell>
                <mxCell id="aN9NVF8_P-ZYfl23Ah9N-3" value="" style="html=1;points=[[0,0,0,0,5],[0,1,0,0,-5],[1,0,0,0,5],[1,1,0,0,-5]];perimeter=orthogonalPerimeter;outlineConnect=0;targetShapes=umlLifeline;portConstraint=eastwest;newEdgeStyle={&quot;curved&quot;:0,&quot;rounded&quot;:0};" parent="aN9NVF8_P-ZYfl23Ah9N-1" vertex="1">
                    <mxGeometry x="45" y="250" width="10" height="100" as="geometry"/>
                </mxCell>
                <mxCell id="aN9NVF8_P-ZYfl23Ah9N-4" value="" style="html=1;points=[[0,0,0,0,5],[0,1,0,0,-5],[1,0,0,0,5],[1,1,0,0,-5]];perimeter=orthogonalPerimeter;outlineConnect=0;targetShapes=umlLifeline;portConstraint=eastwest;newEdgeStyle={&quot;curved&quot;:0,&quot;rounded&quot;:0};" parent="aN9NVF8_P-ZYfl23Ah9N-1" vertex="1">
                    <mxGeometry x="45" y="450" width="10" height="60" as="geometry"/>
                </mxCell>
                <mxCell id="aN9NVF8_P-ZYfl23Ah9N-5" value="" style="html=1;points=[[0,0,0,0,5],[0,1,0,0,-5],[1,0,0,0,5],[1,1,0,0,-5]];perimeter=orthogonalPerimeter;outlineConnect=0;targetShapes=umlLifeline;portConstraint=eastwest;newEdgeStyle={&quot;curved&quot;:0,&quot;rounded&quot;:0};" parent="aN9NVF8_P-ZYfl23Ah9N-1" vertex="1">
                    <mxGeometry x="45" y="600" width="10" height="80" as="geometry"/>
                </mxCell>
                <mxCell id="aN9NVF8_P-ZYfl23Ah9N-6" value="AutoBuild" style="shape=umlFrame;whiteSpace=wrap;html=1;pointerEvents=0;" parent="1" vertex="1">
                    <mxGeometry x="50" y="-690" width="400" height="750" as="geometry"/>
                </mxCell>
                <mxCell id="aN9NVF8_P-ZYfl23Ah9N-7" value="Controller" style="shape=umlLifeline;perimeter=lifelinePerimeter;whiteSpace=wrap;html=1;container=1;dropTarget=0;collapsible=0;recursiveResize=0;outlineConnect=0;portConstraint=eastwest;newEdgeStyle={&quot;curved&quot;:0,&quot;rounded&quot;:0};" parent="1" vertex="1">
                    <mxGeometry x="100" y="-640" width="100" height="660" as="geometry"/>
                </mxCell>
                <mxCell id="aN9NVF8_P-ZYfl23Ah9N-8" value="" style="html=1;points=[[0,0,0,0,5],[0,1,0,0,-5],[1,0,0,0,5],[1,1,0,0,-5]];perimeter=orthogonalPerimeter;outlineConnect=0;targetShapes=umlLifeline;portConstraint=eastwest;newEdgeStyle={&quot;curved&quot;:0,&quot;rounded&quot;:0};" parent="aN9NVF8_P-ZYfl23Ah9N-7" vertex="1">
                    <mxGeometry x="45" y="70" width="10" height="40" as="geometry"/>
                </mxCell>
                <mxCell id="aN9NVF8_P-ZYfl23Ah9N-9" value="" style="html=1;points=[[0,0,0,0,5],[0,1,0,0,-5],[1,0,0,0,5],[1,1,0,0,-5]];perimeter=orthogonalPerimeter;outlineConnect=0;targetShapes=umlLifeline;portConstraint=eastwest;newEdgeStyle={&quot;curved&quot;:0,&quot;rounded&quot;:0};" parent="aN9NVF8_P-ZYfl23Ah9N-7" vertex="1">
                    <mxGeometry x="45" y="240" width="10" height="70" as="geometry"/>
                </mxCell>
                <mxCell id="aN9NVF8_P-ZYfl23Ah9N-10" value="" style="html=1;points=[[0,0,0,0,5],[0,1,0,0,-5],[1,0,0,0,5],[1,1,0,0,-5]];perimeter=orthogonalPerimeter;outlineConnect=0;targetShapes=umlLifeline;portConstraint=eastwest;newEdgeStyle={&quot;curved&quot;:0,&quot;rounded&quot;:0};" parent="aN9NVF8_P-ZYfl23Ah9N-7" vertex="1">
                    <mxGeometry x="45" y="420" width="10" height="60" as="geometry"/>
                </mxCell>
                <mxCell id="aN9NVF8_P-ZYfl23Ah9N-11" value="" style="html=1;points=[[0,0,0,0,5],[0,1,0,0,-5],[1,0,0,0,5],[1,1,0,0,-5]];perimeter=orthogonalPerimeter;outlineConnect=0;targetShapes=umlLifeline;portConstraint=eastwest;newEdgeStyle={&quot;curved&quot;:0,&quot;rounded&quot;:0};" parent="aN9NVF8_P-ZYfl23Ah9N-7" vertex="1">
                    <mxGeometry x="45" y="590" width="10" height="70" as="geometry"/>
                </mxCell>
                <mxCell id="aN9NVF8_P-ZYfl23Ah9N-12" value="Status" style="html=1;verticalAlign=bottom;endArrow=block;curved=0;rounded=0;entryX=1;entryY=0;entryDx=0;entryDy=5;" parent="aN9NVF8_P-ZYfl23Ah9N-7" source="aN9NVF8_P-ZYfl23Ah9N-11" edge="1">
                    <mxGeometry relative="1" as="geometry">
                        <mxPoint x="40" y="600" as="sourcePoint"/>
                        <mxPoint x="-145" y="605" as="targetPoint"/>
                    </mxGeometry>
                </mxCell>
                <mxCell id="aN9NVF8_P-ZYfl23Ah9N-13" value="Ack" style="html=1;verticalAlign=bottom;endArrow=open;dashed=1;endSize=8;curved=0;rounded=0;" parent="aN9NVF8_P-ZYfl23Ah9N-7" target="aN9NVF8_P-ZYfl23Ah9N-11" edge="1">
                    <mxGeometry relative="1" as="geometry">
                        <mxPoint x="40" y="670" as="targetPoint"/>
                        <mxPoint x="-145" y="650" as="sourcePoint"/>
                    </mxGeometry>
                </mxCell>
                <mxCell id="aN9NVF8_P-ZYfl23Ah9N-14" value="" style="shape=umlLifeline;perimeter=lifelinePerimeter;whiteSpace=wrap;html=1;container=1;dropTarget=0;collapsible=0;recursiveResize=0;outlineConnect=0;portConstraint=eastwest;newEdgeStyle={&quot;curved&quot;:0,&quot;rounded&quot;:0};participant=umlActor;" parent="1" vertex="1">
                    <mxGeometry x="-230" y="-640" width="30" height="640" as="geometry"/>
                </mxCell>
                <mxCell id="aN9NVF8_P-ZYfl23Ah9N-15" value="" style="html=1;points=[[0,0,0,0,5],[0,1,0,0,-5],[1,0,0,0,5],[1,1,0,0,-5]];perimeter=orthogonalPerimeter;outlineConnect=0;targetShapes=umlLifeline;portConstraint=eastwest;newEdgeStyle={&quot;curved&quot;:0,&quot;rounded&quot;:0};" parent="aN9NVF8_P-ZYfl23Ah9N-14" vertex="1">
                    <mxGeometry x="10" y="56" width="10" height="104" as="geometry"/>
                </mxCell>
                <mxCell id="aN9NVF8_P-ZYfl23Ah9N-16" value="" style="html=1;points=[[0,0,0,0,5],[0,1,0,0,-5],[1,0,0,0,5],[1,1,0,0,-5]];perimeter=orthogonalPerimeter;outlineConnect=0;targetShapes=umlLifeline;portConstraint=eastwest;newEdgeStyle={&quot;curved&quot;:0,&quot;rounded&quot;:0};" parent="aN9NVF8_P-ZYfl23Ah9N-14" vertex="1">
                    <mxGeometry x="10" y="260" width="10" height="40" as="geometry"/>
                </mxCell>
                <mxCell id="aN9NVF8_P-ZYfl23Ah9N-17" value="" style="html=1;points=[[0,0,0,0,5],[0,1,0,0,-5],[1,0,0,0,5],[1,1,0,0,-5]];perimeter=orthogonalPerimeter;outlineConnect=0;targetShapes=umlLifeline;portConstraint=eastwest;newEdgeStyle={&quot;curved&quot;:0,&quot;rounded&quot;:0};" parent="aN9NVF8_P-ZYfl23Ah9N-14" vertex="1">
                    <mxGeometry x="10" y="410" width="10" height="100" as="geometry"/>
                </mxCell>
                <mxCell id="aN9NVF8_P-ZYfl23Ah9N-18" value="" style="html=1;points=[[0,0,0,0,5],[0,1,0,0,-5],[1,0,0,0,5],[1,1,0,0,-5]];perimeter=orthogonalPerimeter;outlineConnect=0;targetShapes=umlLifeline;portConstraint=eastwest;newEdgeStyle={&quot;curved&quot;:0,&quot;rounded&quot;:0};" parent="aN9NVF8_P-ZYfl23Ah9N-14" vertex="1">
                    <mxGeometry x="10" y="600" width="10" height="40" as="geometry"/>
                </mxCell>
                <mxCell id="aN9NVF8_P-ZYfl23Ah9N-19" value="Raises PR" style="html=1;verticalAlign=bottom;endArrow=block;curved=0;rounded=0;entryX=0;entryY=0;entryDx=0;entryDy=5;exitX=1;exitY=0;exitDx=0;exitDy=5;exitPerimeter=0;" parent="1" source="aN9NVF8_P-ZYfl23Ah9N-15" target="aN9NVF8_P-ZYfl23Ah9N-2" edge="1">
                    <mxGeometry relative="1" as="geometry">
                        <mxPoint x="-130" y="-579" as="sourcePoint"/>
                    </mxGeometry>
                </mxCell>
                <mxCell id="aN9NVF8_P-ZYfl23Ah9N-20" value="Shows Status In Progress" style="html=1;verticalAlign=bottom;endArrow=open;dashed=1;endSize=8;curved=0;rounded=0;exitX=0;exitY=1;exitDx=0;exitDy=-5;entryX=1;entryY=1;entryDx=0;entryDy=-5;entryPerimeter=0;" parent="1" source="aN9NVF8_P-ZYfl23Ah9N-2" target="aN9NVF8_P-ZYfl23Ah9N-15" edge="1">
                    <mxGeometry relative="1" as="geometry">
                        <mxPoint x="-130" y="-509" as="targetPoint"/>
                    </mxGeometry>
                </mxCell>
                <mxCell id="aN9NVF8_P-ZYfl23Ah9N-21" value="Signals" style="html=1;verticalAlign=bottom;endArrow=block;curved=0;rounded=0;entryX=0;entryY=0;entryDx=0;entryDy=5;" parent="1" source="aN9NVF8_P-ZYfl23Ah9N-2" target="aN9NVF8_P-ZYfl23Ah9N-8" edge="1">
                    <mxGeometry relative="1" as="geometry">
                        <mxPoint x="80" y="-565" as="sourcePoint"/>
                    </mxGeometry>
                </mxCell>
                <mxCell id="aN9NVF8_P-ZYfl23Ah9N-22" value="Processor" style="shape=umlLifeline;perimeter=lifelinePerimeter;whiteSpace=wrap;html=1;container=1;dropTarget=0;collapsible=0;recursiveResize=0;outlineConnect=0;portConstraint=eastwest;newEdgeStyle={&quot;curved&quot;:0,&quot;rounded&quot;:0};" parent="1" vertex="1">
                    <mxGeometry x="290" y="-640" width="100" height="610" as="geometry"/>
                </mxCell>
                <mxCell id="aN9NVF8_P-ZYfl23Ah9N-23" value="" style="html=1;points=[[0,0,0,0,5],[0,1,0,0,-5],[1,0,0,0,5],[1,1,0,0,-5]];perimeter=orthogonalPerimeter;outlineConnect=0;targetShapes=umlLifeline;portConstraint=eastwest;newEdgeStyle={&quot;curved&quot;:0,&quot;rounded&quot;:0};" parent="aN9NVF8_P-ZYfl23Ah9N-22" vertex="1">
                    <mxGeometry x="45" y="80" width="10" height="180" as="geometry"/>
                </mxCell>
                <mxCell id="aN9NVF8_P-ZYfl23Ah9N-24" value="" style="html=1;points=[[0,0,0,0,5],[0,1,0,0,-5],[1,0,0,0,5],[1,1,0,0,-5]];perimeter=orthogonalPerimeter;outlineConnect=0;targetShapes=umlLifeline;portConstraint=eastwest;newEdgeStyle={&quot;curved&quot;:0,&quot;rounded&quot;:0};" parent="aN9NVF8_P-ZYfl23Ah9N-22" vertex="1">
                    <mxGeometry x="45" y="430" width="10" height="180" as="geometry"/>
                </mxCell>
                <mxCell id="aN9NVF8_P-ZYfl23Ah9N-25" value="Pipeline Done (Status)" style="html=1;verticalAlign=bottom;endArrow=block;curved=0;rounded=0;entryX=1;entryY=0;entryDx=0;entryDy=5;" parent="aN9NVF8_P-ZYfl23Ah9N-22" source="aN9NVF8_P-ZYfl23Ah9N-24" edge="1">
                    <mxGeometry relative="1" as="geometry">
                        <mxPoint x="-65" y="595" as="sourcePoint"/>
                        <mxPoint x="-135" y="595" as="targetPoint"/>
                    </mxGeometry>
                </mxCell>
                <mxCell id="aN9NVF8_P-ZYfl23Ah9N-26" value="" style="html=1;points=[[0,0,0,0,5],[0,1,0,0,-5],[1,0,0,0,5],[1,1,0,0,-5]];perimeter=orthogonalPerimeter;outlineConnect=0;targetShapes=umlLifeline;portConstraint=eastwest;newEdgeStyle={&quot;curved&quot;:0,&quot;rounded&quot;:0};" parent="aN9NVF8_P-ZYfl23Ah9N-22" vertex="1">
                    <mxGeometry x="55" y="130" width="10" height="100" as="geometry"/>
                </mxCell>
                <mxCell id="aN9NVF8_P-ZYfl23Ah9N-27" value="Process" style="html=1;align=left;spacingLeft=2;endArrow=block;rounded=0;edgeStyle=orthogonalEdgeStyle;curved=0;rounded=0;" parent="aN9NVF8_P-ZYfl23Ah9N-22" source="aN9NVF8_P-ZYfl23Ah9N-23" target="aN9NVF8_P-ZYfl23Ah9N-26" edge="1">
                    <mxGeometry relative="1" as="geometry">
                        <mxPoint x="60" y="110" as="sourcePoint"/>
                        <Array as="points">
                            <mxPoint x="90" y="100"/>
                            <mxPoint x="90" y="200"/>
                        </Array>
                    </mxGeometry>
                </mxCell>
                <mxCell id="aN9NVF8_P-ZYfl23Ah9N-28" value="" style="html=1;points=[[0,0,0,0,5],[0,1,0,0,-5],[1,0,0,0,5],[1,1,0,0,-5]];perimeter=orthogonalPerimeter;outlineConnect=0;targetShapes=umlLifeline;portConstraint=eastwest;newEdgeStyle={&quot;curved&quot;:0,&quot;rounded&quot;:0};" parent="aN9NVF8_P-ZYfl23Ah9N-22" vertex="1">
                    <mxGeometry x="55" y="485" width="10" height="100" as="geometry"/>
                </mxCell>
                <mxCell id="aN9NVF8_P-ZYfl23Ah9N-29" value="Process" style="html=1;align=left;spacingLeft=2;endArrow=block;rounded=0;edgeStyle=orthogonalEdgeStyle;curved=0;rounded=0;" parent="aN9NVF8_P-ZYfl23Ah9N-22" target="aN9NVF8_P-ZYfl23Ah9N-28" edge="1">
                    <mxGeometry relative="1" as="geometry">
                        <mxPoint x="55" y="455" as="sourcePoint"/>
                        <Array as="points">
                            <mxPoint x="90" y="455"/>
                            <mxPoint x="90" y="555"/>
                        </Array>
                    </mxGeometry>
                </mxCell>
                <mxCell id="aN9NVF8_P-ZYfl23Ah9N-30" value="Signals" style="html=1;verticalAlign=bottom;endArrow=block;curved=0;rounded=0;entryX=0;entryY=0;entryDx=0;entryDy=5;" parent="1" source="aN9NVF8_P-ZYfl23Ah9N-8" target="aN9NVF8_P-ZYfl23Ah9N-23" edge="1">
                    <mxGeometry relative="1" as="geometry">
                        <mxPoint x="260" y="-555" as="sourcePoint"/>
                    </mxGeometry>
                </mxCell>
                <mxCell id="aN9NVF8_P-ZYfl23Ah9N-31" value="Ack" style="html=1;verticalAlign=bottom;endArrow=open;dashed=1;endSize=8;curved=0;rounded=0;exitX=0;exitY=1;exitDx=0;exitDy=-5;" parent="1" source="aN9NVF8_P-ZYfl23Ah9N-8" target="aN9NVF8_P-ZYfl23Ah9N-2" edge="1">
                    <mxGeometry relative="1" as="geometry">
                        <mxPoint x="80" y="-495" as="targetPoint"/>
                    </mxGeometry>
                </mxCell>
                <mxCell id="aN9NVF8_P-ZYfl23Ah9N-32" value="Pipeline Done (Status)" style="html=1;verticalAlign=bottom;endArrow=block;curved=0;rounded=0;entryX=1;entryY=0;entryDx=0;entryDy=5;" parent="1" source="aN9NVF8_P-ZYfl23Ah9N-23" target="aN9NVF8_P-ZYfl23Ah9N-9" edge="1">
                    <mxGeometry relative="1" as="geometry">
                        <mxPoint x="225" y="-395" as="sourcePoint"/>
                    </mxGeometry>
                </mxCell>
                <mxCell id="aN9NVF8_P-ZYfl23Ah9N-33" value="Status" style="html=1;verticalAlign=bottom;endArrow=block;curved=0;rounded=0;entryX=1;entryY=0;entryDx=0;entryDy=5;" parent="1" source="aN9NVF8_P-ZYfl23Ah9N-9" target="aN9NVF8_P-ZYfl23Ah9N-3" edge="1">
                    <mxGeometry relative="1" as="geometry">
                        <mxPoint x="140" y="-390" as="sourcePoint"/>
                    </mxGeometry>
                </mxCell>
                <mxCell id="aN9NVF8_P-ZYfl23Ah9N-34" value="Ack" style="html=1;verticalAlign=bottom;endArrow=open;dashed=1;endSize=8;curved=0;rounded=0;" parent="1" source="aN9NVF8_P-ZYfl23Ah9N-3" target="aN9NVF8_P-ZYfl23Ah9N-9" edge="1">
                    <mxGeometry relative="1" as="geometry">
                        <mxPoint x="140" y="-320" as="targetPoint"/>
                    </mxGeometry>
                </mxCell>
                <mxCell id="aN9NVF8_P-ZYfl23Ah9N-35" value="Result of Pipeline Check" style="html=1;verticalAlign=bottom;endArrow=block;curved=0;rounded=0;entryX=1;entryY=0;entryDx=0;entryDy=5;" parent="1" source="aN9NVF8_P-ZYfl23Ah9N-3" target="aN9NVF8_P-ZYfl23Ah9N-16" edge="1">
                    <mxGeometry relative="1" as="geometry">
                        <mxPoint x="-60" y="-380" as="sourcePoint"/>
                    </mxGeometry>
                </mxCell>
                <mxCell id="aN9NVF8_P-ZYfl23Ah9N-36" value="Build/Rebuild" style="html=1;verticalAlign=bottom;endArrow=block;curved=0;rounded=0;entryX=0;entryY=0;entryDx=0;entryDy=5;" parent="1" source="aN9NVF8_P-ZYfl23Ah9N-17" target="aN9NVF8_P-ZYfl23Ah9N-10" edge="1">
                    <mxGeometry relative="1" as="geometry">
                        <mxPoint x="-200" y="-220" as="sourcePoint"/>
                    </mxGeometry>
                </mxCell>
                <mxCell id="aN9NVF8_P-ZYfl23Ah9N-37" value="Signals" style="html=1;verticalAlign=bottom;endArrow=block;curved=0;rounded=0;entryX=0;entryY=0;entryDx=0;entryDy=5;" parent="1" source="aN9NVF8_P-ZYfl23Ah9N-10" target="aN9NVF8_P-ZYfl23Ah9N-24" edge="1">
                    <mxGeometry relative="1" as="geometry">
                        <mxPoint x="155" y="-205" as="sourcePoint"/>
                    </mxGeometry>
                </mxCell>
                <mxCell id="aN9NVF8_P-ZYfl23Ah9N-38" value="Ack" style="html=1;verticalAlign=bottom;endArrow=open;dashed=1;endSize=8;curved=0;rounded=0;exitX=0;exitY=1;exitDx=0;exitDy=-5;" parent="1" source="aN9NVF8_P-ZYfl23Ah9N-10" target="aN9NVF8_P-ZYfl23Ah9N-4" edge="1">
                    <mxGeometry relative="1" as="geometry">
                        <mxPoint x="-40" y="-165" as="targetPoint"/>
                    </mxGeometry>
                </mxCell>
                <mxCell id="aN9NVF8_P-ZYfl23Ah9N-39" value="Shows Status In Progress" style="html=1;verticalAlign=bottom;endArrow=open;dashed=1;endSize=8;curved=0;rounded=0;entryX=1;entryY=1;entryDx=0;entryDy=-5;entryPerimeter=0;" parent="1" source="aN9NVF8_P-ZYfl23Ah9N-4" target="aN9NVF8_P-ZYfl23Ah9N-17" edge="1">
                    <mxGeometry relative="1" as="geometry">
                        <mxPoint x="-230" y="-140" as="targetPoint"/>
                        <mxPoint x="-60" y="-140" as="sourcePoint"/>
                    </mxGeometry>
                </mxCell>
                <mxCell id="aN9NVF8_P-ZYfl23Ah9N-40" value="Result of Pipeline Check" style="html=1;verticalAlign=bottom;endArrow=block;curved=0;rounded=0;" parent="1" source="aN9NVF8_P-ZYfl23Ah9N-5" edge="1">
                    <mxGeometry relative="1" as="geometry">
                        <mxPoint x="-60" y="-20" as="sourcePoint"/>
                        <mxPoint x="-210" y="-19.999999999999773" as="targetPoint"/>
                        <Array as="points">
                            <mxPoint x="-150" y="-20"/>
                        </Array>
                    </mxGeometry>
                </mxCell>
            </root>
        </mxGraphModel>
    </diagram>
    <diagram name="Copy of Pipeline Execution Sequence" id="6TWWs_C5hLiPoFMJJSrg">
        <mxGraphModel dx="1851" dy="2018" grid="1" gridSize="10" guides="1" tooltips="1" connect="1" arrows="1" fold="1" page="1" pageScale="1" pageWidth="827" pageHeight="1169" math="0" shadow="0">
            <root>
                <mxCell id="rCVjCSWDoKuaeztSFYAw-0"/>
                <mxCell id="rCVjCSWDoKuaeztSFYAw-1" parent="rCVjCSWDoKuaeztSFYAw-0"/>
                <mxCell id="rCVjCSWDoKuaeztSFYAw-3" value="VCS" style="shape=umlLifeline;perimeter=lifelinePerimeter;whiteSpace=wrap;html=1;container=1;dropTarget=0;collapsible=0;recursiveResize=0;outlineConnect=0;portConstraint=eastwest;newEdgeStyle={&quot;curved&quot;:0,&quot;rounded&quot;:0};" parent="rCVjCSWDoKuaeztSFYAw-1" vertex="1">
                    <mxGeometry x="-100" y="-640" width="100" height="670" as="geometry"/>
                </mxCell>
                <mxCell id="rCVjCSWDoKuaeztSFYAw-4" value="" style="html=1;points=[[0,0,0,0,5],[0,1,0,0,-5],[1,0,0,0,5],[1,1,0,0,-5]];perimeter=orthogonalPerimeter;outlineConnect=0;targetShapes=umlLifeline;portConstraint=eastwest;newEdgeStyle={&quot;curved&quot;:0,&quot;rounded&quot;:0};" parent="rCVjCSWDoKuaeztSFYAw-3" vertex="1">
                    <mxGeometry x="45" y="56" width="10" height="104" as="geometry"/>
                </mxCell>
                <mxCell id="rCVjCSWDoKuaeztSFYAw-5" value="" style="html=1;points=[[0,0,0,0,5],[0,1,0,0,-5],[1,0,0,0,5],[1,1,0,0,-5]];perimeter=orthogonalPerimeter;outlineConnect=0;targetShapes=umlLifeline;portConstraint=eastwest;newEdgeStyle={&quot;curved&quot;:0,&quot;rounded&quot;:0};" parent="rCVjCSWDoKuaeztSFYAw-3" vertex="1">
                    <mxGeometry x="45" y="250" width="10" height="100" as="geometry"/>
                </mxCell>
                <mxCell id="rCVjCSWDoKuaeztSFYAw-6" value="" style="html=1;points=[[0,0,0,0,5],[0,1,0,0,-5],[1,0,0,0,5],[1,1,0,0,-5]];perimeter=orthogonalPerimeter;outlineConnect=0;targetShapes=umlLifeline;portConstraint=eastwest;newEdgeStyle={&quot;curved&quot;:0,&quot;rounded&quot;:0};" parent="rCVjCSWDoKuaeztSFYAw-3" vertex="1">
                    <mxGeometry x="45" y="450" width="10" height="60" as="geometry"/>
                </mxCell>
                <mxCell id="rCVjCSWDoKuaeztSFYAw-7" value="" style="html=1;points=[[0,0,0,0,5],[0,1,0,0,-5],[1,0,0,0,5],[1,1,0,0,-5]];perimeter=orthogonalPerimeter;outlineConnect=0;targetShapes=umlLifeline;portConstraint=eastwest;newEdgeStyle={&quot;curved&quot;:0,&quot;rounded&quot;:0};" parent="rCVjCSWDoKuaeztSFYAw-3" vertex="1">
                    <mxGeometry x="45" y="600" width="10" height="80" as="geometry"/>
                </mxCell>
                <mxCell id="rCVjCSWDoKuaeztSFYAw-8" value="AutoBuild" style="shape=umlFrame;whiteSpace=wrap;html=1;pointerEvents=0;" parent="rCVjCSWDoKuaeztSFYAw-1" vertex="1">
                    <mxGeometry x="50" y="-690" width="400" height="750" as="geometry"/>
                </mxCell>
                <mxCell id="rCVjCSWDoKuaeztSFYAw-9" value="Controller" style="shape=umlLifeline;perimeter=lifelinePerimeter;whiteSpace=wrap;html=1;container=1;dropTarget=0;collapsible=0;recursiveResize=0;outlineConnect=0;portConstraint=eastwest;newEdgeStyle={&quot;curved&quot;:0,&quot;rounded&quot;:0};" parent="rCVjCSWDoKuaeztSFYAw-1" vertex="1">
                    <mxGeometry x="100" y="-640" width="100" height="660" as="geometry"/>
                </mxCell>
                <mxCell id="rCVjCSWDoKuaeztSFYAw-10" value="" style="html=1;points=[[0,0,0,0,5],[0,1,0,0,-5],[1,0,0,0,5],[1,1,0,0,-5]];perimeter=orthogonalPerimeter;outlineConnect=0;targetShapes=umlLifeline;portConstraint=eastwest;newEdgeStyle={&quot;curved&quot;:0,&quot;rounded&quot;:0};" parent="rCVjCSWDoKuaeztSFYAw-9" vertex="1">
                    <mxGeometry x="45" y="70" width="10" height="40" as="geometry"/>
                </mxCell>
                <mxCell id="rCVjCSWDoKuaeztSFYAw-11" value="" style="html=1;points=[[0,0,0,0,5],[0,1,0,0,-5],[1,0,0,0,5],[1,1,0,0,-5]];perimeter=orthogonalPerimeter;outlineConnect=0;targetShapes=umlLifeline;portConstraint=eastwest;newEdgeStyle={&quot;curved&quot;:0,&quot;rounded&quot;:0};" parent="rCVjCSWDoKuaeztSFYAw-9" vertex="1">
                    <mxGeometry x="45" y="240" width="10" height="70" as="geometry"/>
                </mxCell>
                <mxCell id="rCVjCSWDoKuaeztSFYAw-12" value="" style="html=1;points=[[0,0,0,0,5],[0,1,0,0,-5],[1,0,0,0,5],[1,1,0,0,-5]];perimeter=orthogonalPerimeter;outlineConnect=0;targetShapes=umlLifeline;portConstraint=eastwest;newEdgeStyle={&quot;curved&quot;:0,&quot;rounded&quot;:0};" parent="rCVjCSWDoKuaeztSFYAw-9" vertex="1">
                    <mxGeometry x="45" y="420" width="10" height="60" as="geometry"/>
                </mxCell>
                <mxCell id="rCVjCSWDoKuaeztSFYAw-13" value="" style="html=1;points=[[0,0,0,0,5],[0,1,0,0,-5],[1,0,0,0,5],[1,1,0,0,-5]];perimeter=orthogonalPerimeter;outlineConnect=0;targetShapes=umlLifeline;portConstraint=eastwest;newEdgeStyle={&quot;curved&quot;:0,&quot;rounded&quot;:0};" parent="rCVjCSWDoKuaeztSFYAw-9" vertex="1">
                    <mxGeometry x="45" y="590" width="10" height="70" as="geometry"/>
                </mxCell>
                <mxCell id="rCVjCSWDoKuaeztSFYAw-14" value="Status" style="html=1;verticalAlign=bottom;endArrow=block;curved=0;rounded=0;entryX=1;entryY=0;entryDx=0;entryDy=5;" parent="rCVjCSWDoKuaeztSFYAw-9" source="rCVjCSWDoKuaeztSFYAw-13" edge="1">
                    <mxGeometry relative="1" as="geometry">
                        <mxPoint x="40" y="600" as="sourcePoint"/>
                        <mxPoint x="-145" y="605" as="targetPoint"/>
                    </mxGeometry>
                </mxCell>
                <mxCell id="rCVjCSWDoKuaeztSFYAw-15" value="Ack" style="html=1;verticalAlign=bottom;endArrow=open;dashed=1;endSize=8;curved=0;rounded=0;" parent="rCVjCSWDoKuaeztSFYAw-9" target="rCVjCSWDoKuaeztSFYAw-13" edge="1">
                    <mxGeometry relative="1" as="geometry">
                        <mxPoint x="40" y="670" as="targetPoint"/>
                        <mxPoint x="-145" y="650" as="sourcePoint"/>
                    </mxGeometry>
                </mxCell>
                <mxCell id="rCVjCSWDoKuaeztSFYAw-16" value="" style="shape=umlLifeline;perimeter=lifelinePerimeter;whiteSpace=wrap;html=1;container=1;dropTarget=0;collapsible=0;recursiveResize=0;outlineConnect=0;portConstraint=eastwest;newEdgeStyle={&quot;curved&quot;:0,&quot;rounded&quot;:0};participant=umlActor;" parent="rCVjCSWDoKuaeztSFYAw-1" vertex="1">
                    <mxGeometry x="-230" y="-640" width="30" height="640" as="geometry"/>
                </mxCell>
                <mxCell id="rCVjCSWDoKuaeztSFYAw-17" value="" style="html=1;points=[[0,0,0,0,5],[0,1,0,0,-5],[1,0,0,0,5],[1,1,0,0,-5]];perimeter=orthogonalPerimeter;outlineConnect=0;targetShapes=umlLifeline;portConstraint=eastwest;newEdgeStyle={&quot;curved&quot;:0,&quot;rounded&quot;:0};" parent="rCVjCSWDoKuaeztSFYAw-16" vertex="1">
                    <mxGeometry x="10" y="56" width="10" height="104" as="geometry"/>
                </mxCell>
                <mxCell id="rCVjCSWDoKuaeztSFYAw-18" value="" style="html=1;points=[[0,0,0,0,5],[0,1,0,0,-5],[1,0,0,0,5],[1,1,0,0,-5]];perimeter=orthogonalPerimeter;outlineConnect=0;targetShapes=umlLifeline;portConstraint=eastwest;newEdgeStyle={&quot;curved&quot;:0,&quot;rounded&quot;:0};" parent="rCVjCSWDoKuaeztSFYAw-16" vertex="1">
                    <mxGeometry x="10" y="260" width="10" height="40" as="geometry"/>
                </mxCell>
                <mxCell id="rCVjCSWDoKuaeztSFYAw-19" value="" style="html=1;points=[[0,0,0,0,5],[0,1,0,0,-5],[1,0,0,0,5],[1,1,0,0,-5]];perimeter=orthogonalPerimeter;outlineConnect=0;targetShapes=umlLifeline;portConstraint=eastwest;newEdgeStyle={&quot;curved&quot;:0,&quot;rounded&quot;:0};" parent="rCVjCSWDoKuaeztSFYAw-16" vertex="1">
                    <mxGeometry x="10" y="410" width="10" height="100" as="geometry"/>
                </mxCell>
                <mxCell id="rCVjCSWDoKuaeztSFYAw-20" value="" style="html=1;points=[[0,0,0,0,5],[0,1,0,0,-5],[1,0,0,0,5],[1,1,0,0,-5]];perimeter=orthogonalPerimeter;outlineConnect=0;targetShapes=umlLifeline;portConstraint=eastwest;newEdgeStyle={&quot;curved&quot;:0,&quot;rounded&quot;:0};" parent="rCVjCSWDoKuaeztSFYAw-16" vertex="1">
                    <mxGeometry x="10" y="600" width="10" height="40" as="geometry"/>
                </mxCell>
                <mxCell id="rCVjCSWDoKuaeztSFYAw-21" value="Raises PR" style="html=1;verticalAlign=bottom;endArrow=block;curved=0;rounded=0;entryX=0;entryY=0;entryDx=0;entryDy=5;exitX=1;exitY=0;exitDx=0;exitDy=5;exitPerimeter=0;" parent="rCVjCSWDoKuaeztSFYAw-1" source="rCVjCSWDoKuaeztSFYAw-17" target="rCVjCSWDoKuaeztSFYAw-4" edge="1">
                    <mxGeometry relative="1" as="geometry">
                        <mxPoint x="-130" y="-579" as="sourcePoint"/>
                    </mxGeometry>
                </mxCell>
                <mxCell id="rCVjCSWDoKuaeztSFYAw-22" value="Shows Status In Progress" style="html=1;verticalAlign=bottom;endArrow=open;dashed=1;endSize=8;curved=0;rounded=0;exitX=0;exitY=1;exitDx=0;exitDy=-5;entryX=1;entryY=1;entryDx=0;entryDy=-5;entryPerimeter=0;" parent="rCVjCSWDoKuaeztSFYAw-1" source="rCVjCSWDoKuaeztSFYAw-4" target="rCVjCSWDoKuaeztSFYAw-17" edge="1">
                    <mxGeometry relative="1" as="geometry">
                        <mxPoint x="-130" y="-509" as="targetPoint"/>
                    </mxGeometry>
                </mxCell>
                <mxCell id="rCVjCSWDoKuaeztSFYAw-23" value="Signals" style="html=1;verticalAlign=bottom;endArrow=block;curved=0;rounded=0;entryX=0;entryY=0;entryDx=0;entryDy=5;" parent="rCVjCSWDoKuaeztSFYAw-1" source="rCVjCSWDoKuaeztSFYAw-4" target="rCVjCSWDoKuaeztSFYAw-10" edge="1">
                    <mxGeometry relative="1" as="geometry">
                        <mxPoint x="80" y="-565" as="sourcePoint"/>
                    </mxGeometry>
                </mxCell>
                <mxCell id="rCVjCSWDoKuaeztSFYAw-24" value="Processor" style="shape=umlLifeline;perimeter=lifelinePerimeter;whiteSpace=wrap;html=1;container=1;dropTarget=0;collapsible=0;recursiveResize=0;outlineConnect=0;portConstraint=eastwest;newEdgeStyle={&quot;curved&quot;:0,&quot;rounded&quot;:0};" parent="rCVjCSWDoKuaeztSFYAw-1" vertex="1">
                    <mxGeometry x="290" y="-640" width="100" height="610" as="geometry"/>
                </mxCell>
                <mxCell id="rCVjCSWDoKuaeztSFYAw-25" value="" style="html=1;points=[[0,0,0,0,5],[0,1,0,0,-5],[1,0,0,0,5],[1,1,0,0,-5]];perimeter=orthogonalPerimeter;outlineConnect=0;targetShapes=umlLifeline;portConstraint=eastwest;newEdgeStyle={&quot;curved&quot;:0,&quot;rounded&quot;:0};" parent="rCVjCSWDoKuaeztSFYAw-24" vertex="1">
                    <mxGeometry x="45" y="80" width="10" height="180" as="geometry"/>
                </mxCell>
                <mxCell id="rCVjCSWDoKuaeztSFYAw-26" value="" style="html=1;points=[[0,0,0,0,5],[0,1,0,0,-5],[1,0,0,0,5],[1,1,0,0,-5]];perimeter=orthogonalPerimeter;outlineConnect=0;targetShapes=umlLifeline;portConstraint=eastwest;newEdgeStyle={&quot;curved&quot;:0,&quot;rounded&quot;:0};" parent="rCVjCSWDoKuaeztSFYAw-24" vertex="1">
                    <mxGeometry x="45" y="430" width="10" height="180" as="geometry"/>
                </mxCell>
                <mxCell id="rCVjCSWDoKuaeztSFYAw-27" value="Pipeline Done (Status)" style="html=1;verticalAlign=bottom;endArrow=block;curved=0;rounded=0;entryX=1;entryY=0;entryDx=0;entryDy=5;" parent="rCVjCSWDoKuaeztSFYAw-24" source="rCVjCSWDoKuaeztSFYAw-26" edge="1">
                    <mxGeometry relative="1" as="geometry">
                        <mxPoint x="-65" y="595" as="sourcePoint"/>
                        <mxPoint x="-135" y="595" as="targetPoint"/>
                    </mxGeometry>
                </mxCell>
                <mxCell id="WBmxWIk4F6beep0NZd1W-2" value="" style="html=1;points=[[0,0,0,0,5],[0,1,0,0,-5],[1,0,0,0,5],[1,1,0,0,-5]];perimeter=orthogonalPerimeter;outlineConnect=0;targetShapes=umlLifeline;portConstraint=eastwest;newEdgeStyle={&quot;curved&quot;:0,&quot;rounded&quot;:0};" parent="rCVjCSWDoKuaeztSFYAw-24" vertex="1">
                    <mxGeometry x="55" y="130" width="10" height="100" as="geometry"/>
                </mxCell>
                <mxCell id="WBmxWIk4F6beep0NZd1W-3" value="Process" style="html=1;align=left;spacingLeft=2;endArrow=block;rounded=0;edgeStyle=orthogonalEdgeStyle;curved=0;rounded=0;" parent="rCVjCSWDoKuaeztSFYAw-24" source="rCVjCSWDoKuaeztSFYAw-25" target="WBmxWIk4F6beep0NZd1W-2" edge="1">
                    <mxGeometry relative="1" as="geometry">
                        <mxPoint x="60" y="110" as="sourcePoint"/>
                        <Array as="points">
                            <mxPoint x="90" y="100"/>
                            <mxPoint x="90" y="200"/>
                        </Array>
                    </mxGeometry>
                </mxCell>
                <mxCell id="WBmxWIk4F6beep0NZd1W-4" value="" style="html=1;points=[[0,0,0,0,5],[0,1,0,0,-5],[1,0,0,0,5],[1,1,0,0,-5]];perimeter=orthogonalPerimeter;outlineConnect=0;targetShapes=umlLifeline;portConstraint=eastwest;newEdgeStyle={&quot;curved&quot;:0,&quot;rounded&quot;:0};" parent="rCVjCSWDoKuaeztSFYAw-24" vertex="1">
                    <mxGeometry x="55" y="485" width="10" height="100" as="geometry"/>
                </mxCell>
                <mxCell id="WBmxWIk4F6beep0NZd1W-5" value="Process" style="html=1;align=left;spacingLeft=2;endArrow=block;rounded=0;edgeStyle=orthogonalEdgeStyle;curved=0;rounded=0;" parent="rCVjCSWDoKuaeztSFYAw-24" target="WBmxWIk4F6beep0NZd1W-4" edge="1">
                    <mxGeometry relative="1" as="geometry">
                        <mxPoint x="55" y="455" as="sourcePoint"/>
                        <Array as="points">
                            <mxPoint x="90" y="455"/>
                            <mxPoint x="90" y="555"/>
                        </Array>
                    </mxGeometry>
                </mxCell>
                <mxCell id="rCVjCSWDoKuaeztSFYAw-28" value="Signals" style="html=1;verticalAlign=bottom;endArrow=block;curved=0;rounded=0;entryX=0;entryY=0;entryDx=0;entryDy=5;" parent="rCVjCSWDoKuaeztSFYAw-1" source="rCVjCSWDoKuaeztSFYAw-10" target="rCVjCSWDoKuaeztSFYAw-25" edge="1">
                    <mxGeometry relative="1" as="geometry">
                        <mxPoint x="260" y="-555" as="sourcePoint"/>
                    </mxGeometry>
                </mxCell>
                <mxCell id="rCVjCSWDoKuaeztSFYAw-29" value="Ack" style="html=1;verticalAlign=bottom;endArrow=open;dashed=1;endSize=8;curved=0;rounded=0;exitX=0;exitY=1;exitDx=0;exitDy=-5;" parent="rCVjCSWDoKuaeztSFYAw-1" source="rCVjCSWDoKuaeztSFYAw-10" target="rCVjCSWDoKuaeztSFYAw-4" edge="1">
                    <mxGeometry relative="1" as="geometry">
                        <mxPoint x="80" y="-495" as="targetPoint"/>
                    </mxGeometry>
                </mxCell>
                <mxCell id="rCVjCSWDoKuaeztSFYAw-30" value="Pipeline Done (Status)" style="html=1;verticalAlign=bottom;endArrow=block;curved=0;rounded=0;entryX=1;entryY=0;entryDx=0;entryDy=5;" parent="rCVjCSWDoKuaeztSFYAw-1" source="rCVjCSWDoKuaeztSFYAw-25" target="rCVjCSWDoKuaeztSFYAw-11" edge="1">
                    <mxGeometry relative="1" as="geometry">
                        <mxPoint x="225" y="-395" as="sourcePoint"/>
                    </mxGeometry>
                </mxCell>
                <mxCell id="rCVjCSWDoKuaeztSFYAw-31" value="Status" style="html=1;verticalAlign=bottom;endArrow=block;curved=0;rounded=0;entryX=1;entryY=0;entryDx=0;entryDy=5;" parent="rCVjCSWDoKuaeztSFYAw-1" source="rCVjCSWDoKuaeztSFYAw-11" target="rCVjCSWDoKuaeztSFYAw-5" edge="1">
                    <mxGeometry relative="1" as="geometry">
                        <mxPoint x="140" y="-390" as="sourcePoint"/>
                    </mxGeometry>
                </mxCell>
                <mxCell id="rCVjCSWDoKuaeztSFYAw-32" value="Ack" style="html=1;verticalAlign=bottom;endArrow=open;dashed=1;endSize=8;curved=0;rounded=0;" parent="rCVjCSWDoKuaeztSFYAw-1" source="rCVjCSWDoKuaeztSFYAw-5" target="rCVjCSWDoKuaeztSFYAw-11" edge="1">
                    <mxGeometry relative="1" as="geometry">
                        <mxPoint x="140" y="-320" as="targetPoint"/>
                    </mxGeometry>
                </mxCell>
                <mxCell id="rCVjCSWDoKuaeztSFYAw-33" value="Result of Pipeline Check" style="html=1;verticalAlign=bottom;endArrow=block;curved=0;rounded=0;entryX=1;entryY=0;entryDx=0;entryDy=5;" parent="rCVjCSWDoKuaeztSFYAw-1" source="rCVjCSWDoKuaeztSFYAw-5" target="rCVjCSWDoKuaeztSFYAw-18" edge="1">
                    <mxGeometry relative="1" as="geometry">
                        <mxPoint x="-60" y="-380" as="sourcePoint"/>
                    </mxGeometry>
                </mxCell>
                <mxCell id="rCVjCSWDoKuaeztSFYAw-34" value="Build/Rebuild" style="html=1;verticalAlign=bottom;endArrow=block;curved=0;rounded=0;entryX=0;entryY=0;entryDx=0;entryDy=5;" parent="rCVjCSWDoKuaeztSFYAw-1" source="rCVjCSWDoKuaeztSFYAw-19" target="rCVjCSWDoKuaeztSFYAw-12" edge="1">
                    <mxGeometry relative="1" as="geometry">
                        <mxPoint x="-200" y="-220" as="sourcePoint"/>
                    </mxGeometry>
                </mxCell>
                <mxCell id="rCVjCSWDoKuaeztSFYAw-35" value="Signals" style="html=1;verticalAlign=bottom;endArrow=block;curved=0;rounded=0;entryX=0;entryY=0;entryDx=0;entryDy=5;" parent="rCVjCSWDoKuaeztSFYAw-1" source="rCVjCSWDoKuaeztSFYAw-12" target="rCVjCSWDoKuaeztSFYAw-26" edge="1">
                    <mxGeometry relative="1" as="geometry">
                        <mxPoint x="155" y="-205" as="sourcePoint"/>
                    </mxGeometry>
                </mxCell>
                <mxCell id="rCVjCSWDoKuaeztSFYAw-36" value="Ack" style="html=1;verticalAlign=bottom;endArrow=open;dashed=1;endSize=8;curved=0;rounded=0;exitX=0;exitY=1;exitDx=0;exitDy=-5;" parent="rCVjCSWDoKuaeztSFYAw-1" source="rCVjCSWDoKuaeztSFYAw-12" target="rCVjCSWDoKuaeztSFYAw-6" edge="1">
                    <mxGeometry relative="1" as="geometry">
                        <mxPoint x="-40" y="-165" as="targetPoint"/>
                    </mxGeometry>
                </mxCell>
                <mxCell id="rCVjCSWDoKuaeztSFYAw-37" value="Shows Status In Progress" style="html=1;verticalAlign=bottom;endArrow=open;dashed=1;endSize=8;curved=0;rounded=0;entryX=1;entryY=1;entryDx=0;entryDy=-5;entryPerimeter=0;" parent="rCVjCSWDoKuaeztSFYAw-1" source="rCVjCSWDoKuaeztSFYAw-6" target="rCVjCSWDoKuaeztSFYAw-19" edge="1">
                    <mxGeometry relative="1" as="geometry">
                        <mxPoint x="-230" y="-140" as="targetPoint"/>
                        <mxPoint x="-60" y="-140" as="sourcePoint"/>
                    </mxGeometry>
                </mxCell>
                <mxCell id="rCVjCSWDoKuaeztSFYAw-38" value="Result of Pipeline Check" style="html=1;verticalAlign=bottom;endArrow=block;curved=0;rounded=0;" parent="rCVjCSWDoKuaeztSFYAw-1" source="rCVjCSWDoKuaeztSFYAw-7" edge="1">
                    <mxGeometry relative="1" as="geometry">
                        <mxPoint x="-60" y="-20" as="sourcePoint"/>
                        <mxPoint x="-210" y="-19.999999999999773" as="targetPoint"/>
                        <Array as="points">
                            <mxPoint x="-150" y="-20"/>
                        </Array>
                    </mxGeometry>
                </mxCell>
            </root>
        </mxGraphModel>
    </diagram>
    <diagram id="lsNpP8074k1gudtRxkD0" name="Page-2">
        <mxGraphModel dx="1024" dy="849" grid="1" gridSize="10" guides="1" tooltips="1" connect="1" arrows="1" fold="1" page="1" pageScale="1" pageWidth="827" pageHeight="1169" math="0" shadow="0">
            <root>
                <mxCell id="0"/>
                <mxCell id="1" parent="0"/>
            </root>
        </mxGraphModel>
    </diagram>
</mxfile>